<svg xmlns="http://www.w3.org/2000/svg" viewBox="0 0 140 36" fill="none" aria-hidden="true">
  <path d="M4 28 L12 8 L20 8 L28 28 L22 28 L20 22 L12 22 L10 28 Z M14 18 L18 18 L16 12 Z" fill="#FFFFFF" fill-opacity="0.9"/>
  <path d="M36 28 L44 8 L58 8 L56 14 L48 14 L46 20 L56 20 L54 26 L44 26 L42 28 Z" fill="#FFFFFF" fill-opacity="0.9"/>
  <path d="M64 28 L72 8 L86 8 L84 14 L76 14 L74 20 L84 20 L82 26 L72 26 L70 28 Z" fill="#FFFFFF" fill-opacity="0.9"/>
  <path d="M92 28 L100 8 L114 8 L112 14 L104 14 L102 20 L112 20 L110 26 L100 26 L98 28 Z" fill="#FFFFFF" fill-opacity="0.9"/>
  <path d="M118 12 C124 12 128 16 128 22 C128 28 122 30 116 28 L108 28 L116 8 L124 8 L122 14 L118 14 C115 14 113 16 113 19 C113 22 115 24 118 24 L120 24 L118 28 Z" fill="#FFFFFF" fill-opacity="0.9"/>
</svg>
