<svg xmlns="http://www.w3.org/2000/svg" viewBox="0 0 120 32" fill="none" aria-hidden="true">
  <path d="M8 26 L18 6 L26 6 L20 18 L32 6 L42 6 L28 26 L20 26 L14 14 L8 26 Z" fill="#FFFFFF" fill-opacity="0.92"/>
  <path d="M44 26 L52 8 L68 8 L66 14 L56 14 L54 18 L66 18 L64 24 L52 24 L50 26 Z" fill="#FFFFFF" fill-opacity="0.92"/>
  <path d="M72 26 L80 8 L96 8 L94 14 L84 14 L82 18 L94 18 L92 24 L80 24 L78 26 Z" fill="#FFFFFF" fill-opacity="0.92"/>
  <path d="M100 26 L108 8 L112 8 L104 26 Z" fill="#FFFFFF" fill-opacity="0.92"/>
</svg>
